<svg xmlns="http://www.w3.org/2000/svg" viewBox="0 0 580 168" width="580" height="168" aria-label="Coal bulker">
  <defs>
    <linearGradient id="nvWB-bc" gradientUnits="userSpaceOnUse" x1="34" y1="88" x2="-38" y2="88">
      <stop offset="0%" stop-color="#ffffff" stop-opacity="0.88"/>
      <stop offset="28%" stop-color="#fef9c3" stop-opacity="0.5"/>
      <stop offset="100%" stop-color="#ffffff" stop-opacity="0"/>
    </linearGradient>
    <linearGradient id="nvWS-bc" gradientUnits="userSpaceOnUse" x1="552" y1="88" x2="612" y2="88">
      <stop offset="0%" stop-color="#ffffff" stop-opacity="0.85"/>
      <stop offset="30%" stop-color="#fef9c3" stop-opacity="0.48"/>
      <stop offset="100%" stop-color="#ffffff" stop-opacity="0"/>
    </linearGradient>
    <radialGradient id="nvRP-bc" gradientUnits="userSpaceOnUse" cx="381" cy="104" r="56">
      <stop offset="0%" stop-color="#fecaca" stop-opacity="0.98"/>
      <stop offset="15%" stop-color="#ef4444" stop-opacity="0.82"/>
      <stop offset="40%" stop-color="#ef4444" stop-opacity="0.42"/>
      <stop offset="100%" stop-color="#ef4444" stop-opacity="0"/>
    </radialGradient>
    <radialGradient id="nvSG-bc" gradientUnits="userSpaceOnUse" cx="381" cy="72" r="56">
      <stop offset="0%" stop-color="#d1fae5" stop-opacity="0.98"/>
      <stop offset="15%" stop-color="#22c55e" stop-opacity="0.82"/>
      <stop offset="40%" stop-color="#22c55e" stop-opacity="0.42"/>
      <stop offset="100%" stop-color="#22c55e" stop-opacity="0"/>
    </radialGradient>
    <filter id="nvFW-bc" x="-60%" y="-60%" width="220%" height="220%" color-interpolation-filters="sRGB">
      <feGaussianBlur in="SourceGraphic" stdDeviation="3" result="b"/>
      <feMerge>
        <feMergeNode in="b"/>
        <feMergeNode in="SourceGraphic"/>
      </feMerge>
    </filter>
    <filter id="nvFC-bc" x="-130%" y="-130%" width="360%" height="360%" color-interpolation-filters="sRGB">
      <feGaussianBlur in="SourceGraphic" stdDeviation="6" result="b"/>
      <feMerge>
        <feMergeNode in="b"/>
        <feMergeNode in="b"/>
        <feMergeNode in="SourceGraphic"/>
      </feMerge>
    </filter>
  </defs>
  <ellipse cx="290" cy="88" rx="248" ry="38" fill="#cbd5e1" opacity="0.22"/>
  <path fill="#5c7d95"
    d="M 32 84 L 40 46 L 46 40 L 108 32 L 412 32 L 458 36 C 505 44 548 72 556 84 C 548 96 505 124 458 132 L 412 136 L 108 136 L 46 128 L 40 122 L 32 84 Z"/>
  
  <rect x="125" y="48" width="92" height="72" rx="2" fill="#2d4554"/>
  <rect x="227" y="48" width="92" height="72" rx="2" fill="#2d4554"/>
  <rect x="329" y="48" width="92" height="72" rx="2" fill="#2d4554"/>
  <ellipse cx="171" cy="84" rx="38" ry="28" fill="#44403c" opacity="0.95"/>
  <ellipse cx="273" cy="84" rx="38" ry="28" fill="#44403c" opacity="0.95"/>
  <ellipse cx="375" cy="84" rx="38" ry="28" fill="#44403c" opacity="0.95"/>
  <rect x="128" y="52" width="86" height="6" fill="#94a3b8"/>
  <rect x="230" y="52" width="86" height="6" fill="#94a3b8"/>
  <rect x="332" y="52" width="86" height="6" fill="#94a3b8"/>
  <rect x="48" y="52" width="52" height="64" rx="3" fill="#f1f5f9"/>
  <rect x="54" y="56" width="40" height="22" rx="2" fill="#e2e8f0"/>
  <rect x="70" y="44" width="12" height="12" rx="2" fill="#b91c1c"/>
  <circle cx="528" cy="84" r="6" fill="#ca8a04"/>
  <g aria-hidden="true" pointer-events="none">
    <path fill="url(#nvWB-bc)" filter="url(#nvFW-bc)" d="M 34 88 L -36 62 L -36 114 Z"/>
    <path fill="url(#nvWS-bc)" filter="url(#nvFW-bc)" d="M 552 88 L 620 58 L 620 118 Z"/>
    <ellipse cx="381" cy="104" rx="16" ry="42" fill="url(#nvRP-bc)" filter="url(#nvFC-bc)"/>
    <ellipse cx="381" cy="72" rx="16" ry="42" fill="url(#nvSG-bc)" filter="url(#nvFC-bc)"/>
  </g>
</svg>
