<svg xmlns="http://www.w3.org/2000/svg" viewBox="-520 -95 1580 330" width="1580" height="330" aria-label="Car carrier">
  <defs>
    <style type="text/css"><![CDATA[
      @keyframes navBlinkCf {
        0%, 42% { opacity: 1; }
        54%, 91% { opacity: 0.07; }
        100% { opacity: 1; }
      }
      .nvPortCf { animation: navBlinkCf 4.4s ease-in-out infinite; animation-delay: 0s; }
      .nvStbdCf { animation: navBlinkCf 4.4s ease-in-out infinite; animation-delay: 2.2s; }
      @keyframes beamBreathCf {
        0%, 100% { opacity: 0.96; }
        50% { opacity: 0.86; }
      }
      .nvBeamsBreathCf { animation: beamBreathCf 8.5s ease-in-out infinite; }
      @media (prefers-reduced-motion: reduce) {
        .nvBeamsBreathCf { animation: none; opacity: 0.92; }
      }
    ]]></style>
    <linearGradient id="nvWB-cc" gradientUnits="userSpaceOnUse" x1="32" y1="80" x2="-520" y2="80">
      <stop offset="0%" stop-color="#ffffff" stop-opacity="0.92"/>
      <stop offset="18%" stop-color="#fef9c3" stop-opacity="0.5"/>
      <stop offset="55%" stop-color="#fefce8" stop-opacity="0.12"/>
      <stop offset="100%" stop-color="#ffffff" stop-opacity="0"/>
    </linearGradient>
    <linearGradient id="nvWS-cc" gradientUnits="userSpaceOnUse" x1="488" y1="80" x2="1040" y2="80">
      <stop offset="0%" stop-color="#ffffff" stop-opacity="0.9"/>
      <stop offset="18%" stop-color="#fef9c3" stop-opacity="0.48"/>
      <stop offset="55%" stop-color="#fefce8" stop-opacity="0.1"/>
      <stop offset="100%" stop-color="#ffffff" stop-opacity="0"/>
    </linearGradient>
    <radialGradient id="nvRP-cc" gradientUnits="userSpaceOnUse" cx="183" cy="118" r="24">
      <stop offset="0%" stop-color="#fecaca" stop-opacity="0.95"/>
      <stop offset="35%" stop-color="#ef4444" stop-opacity="0.65"/>
      <stop offset="100%" stop-color="#ef4444" stop-opacity="0"/>
    </radialGradient>
    <radialGradient id="nvSG-cc" gradientUnits="userSpaceOnUse" cx="183" cy="42" r="24">
      <stop offset="0%" stop-color="#d1fae5" stop-opacity="0.95"/>
      <stop offset="35%" stop-color="#22c55e" stop-opacity="0.65"/>
      <stop offset="100%" stop-color="#22c55e" stop-opacity="0"/>
    </radialGradient>
    <filter id="nvFW-cc" x="-90%" y="-90%" width="280%" height="280%" color-interpolation-filters="sRGB">
      <feGaussianBlur in="SourceGraphic" stdDeviation="5" result="b"/>
      <feMerge>
        <feMergeNode in="b"/>
        <feMergeNode in="b"/>
        <feMergeNode in="SourceGraphic"/>
      </feMerge>
    </filter>
    <filter id="nvFC-cc" x="-130%" y="-130%" width="360%" height="360%" color-interpolation-filters="sRGB">
      <feGaussianBlur in="SourceGraphic" stdDeviation="5" result="b"/>
      <feMerge>
        <feMergeNode in="b"/>
        <feMergeNode in="SourceGraphic"/>
      </feMerge>
    </filter>
    <filter id="hullHaloSoft-cc" x="-28%" y="-28%" width="156%" height="156%" color-interpolation-filters="sRGB">
      <feGaussianBlur in="SourceGraphic" stdDeviation="11" result="b"/>
      <feMerge><feMergeNode in="b"/></feMerge>
    </filter>
  </defs>
  <g transform="translate(260,0) scale(-1,1) translate(-260,0)">
    <g filter="url(#hullHaloSoft-cc)" opacity="0.88" aria-hidden="true">
      <ellipse cx="260" cy="80" rx="395" ry="86" fill="#00a8ff" opacity="0.09"/>
      <ellipse cx="260" cy="80" rx="315" ry="68" fill="#64748b" opacity="0.075"/>
      <ellipse cx="260" cy="80" rx="240" ry="52" fill="#94a3b8" opacity="0.055"/>
    </g>
    <g transform="translate(260,80) scale(0.868) translate(-293,-84)">
      <path fill="#5c7d95"
        d="M 28 84 L 32 50 L 38 44 L 100 34 L 408 34 L 456 38 C 508 46 552 72 558 84 C 552 96 508 122 456 130 L 408 134 L 100 134 L 38 124 L 32 118 L 28 84 Z"/>
      <rect x="108" y="48" width="312" height="72" rx="2" fill="#ddd6fe" opacity="0.88"/>
      <g fill="#fbbf24">
        <rect x="118" y="56" width="22" height="9" rx="1"/><rect x="144" y="56" width="22" height="9" rx="1"/><rect x="170" y="56" width="22" height="9" rx="1"/><rect x="196" y="56" width="22" height="9" rx="1"/><rect x="222" y="56" width="22" height="9" rx="1"/><rect x="248" y="56" width="22" height="9" rx="1"/><rect x="274" y="56" width="22" height="9" rx="1"/><rect x="300" y="56" width="22" height="9" rx="1"/><rect x="326" y="56" width="22" height="9" rx="1"/><rect x="352" y="56" width="22" height="9" rx="1"/><rect x="378" y="56" width="22" height="9" rx="1"/>
        <rect x="118" y="70" width="22" height="9" rx="1"/><rect x="144" y="70" width="22" height="9" rx="1"/><rect x="170" y="70" width="22" height="9" rx="1"/><rect x="196" y="70" width="22" height="9" rx="1"/><rect x="222" y="70" width="22" height="9" rx="1"/><rect x="248" y="70" width="22" height="9" rx="1"/><rect x="274" y="70" width="22" height="9" rx="1"/><rect x="300" y="70" width="22" height="9" rx="1"/><rect x="326" y="70" width="22" height="9" rx="1"/><rect x="352" y="70" width="22" height="9" rx="1"/><rect x="378" y="70" width="22" height="9" rx="1"/>
        <rect x="118" y="84" width="22" height="9" rx="1"/><rect x="144" y="84" width="22" height="9" rx="1"/><rect x="170" y="84" width="22" height="9" rx="1"/><rect x="196" y="84" width="22" height="9" rx="1"/><rect x="222" y="84" width="22" height="9" rx="1"/><rect x="248" y="84" width="22" height="9" rx="1"/><rect x="274" y="84" width="22" height="9" rx="1"/><rect x="300" y="84" width="22" height="9" rx="1"/><rect x="326" y="84" width="22" height="9" rx="1"/><rect x="352" y="84" width="22" height="9" rx="1"/><rect x="378" y="84" width="22" height="9" rx="1"/>
        <rect x="118" y="98" width="22" height="9" rx="1"/><rect x="144" y="98" width="22" height="9" rx="1"/><rect x="170" y="98" width="22" height="9" rx="1"/><rect x="196" y="98" width="22" height="9" rx="1"/><rect x="222" y="98" width="22" height="9" rx="1"/><rect x="248" y="98" width="22" height="9" rx="1"/><rect x="274" y="98" width="22" height="9" rx="1"/><rect x="300" y="98" width="22" height="9" rx="1"/><rect x="326" y="98" width="22" height="9" rx="1"/><rect x="352" y="98" width="22" height="9" rx="1"/><rect x="378" y="98" width="22" height="9" rx="1"/>
      </g>
      <rect x="48" y="50" width="52" height="68" rx="3" fill="#f1f5f9"/>
      <rect x="54" y="54" width="40" height="26" rx="2" fill="#e2e8f0"/>
      <rect x="520" y="76" width="14" height="16" rx="2" fill="#eab308"/>
    </g>
    <g class="nvBeamsBreathCf" aria-hidden="true" pointer-events="none">
      <path fill="url(#nvWB-cc)" filter="url(#nvFW-cc)" d="M 32 80 L -515 62 L -515 98 Z"/>
      <path fill="url(#nvWS-cc)" filter="url(#nvFW-cc)" d="M 488 80 L 1035 62 L 1035 98 Z"/>
    </g>
  </g>
  <g aria-hidden="true" pointer-events="none">
    <circle class="nvPortCf" cx="183" cy="118" r="11" fill="url(#nvRP-cc)" filter="url(#nvFC-cc)"/>
    <circle class="nvStbdCf" cx="183" cy="42" r="11" fill="url(#nvSG-cc)" filter="url(#nvFC-cc)"/>
  </g>
</svg>
