<svg xmlns="http://www.w3.org/2000/svg" viewBox="0 0 540 165" width="540" height="165" aria-label="Cement carrier">
  <defs>
    <linearGradient id="nvWB-cm" gradientUnits="userSpaceOnUse" x1="30" y1="86" x2="-40" y2="86">
      <stop offset="0%" stop-color="#ffffff" stop-opacity="0.88"/>
      <stop offset="28%" stop-color="#fef9c3" stop-opacity="0.5"/>
      <stop offset="100%" stop-color="#ffffff" stop-opacity="0"/>
    </linearGradient>
    <linearGradient id="nvWS-cm" gradientUnits="userSpaceOnUse" x1="506" y1="86" x2="538" y2="86">
      <stop offset="0%" stop-color="#ffffff" stop-opacity="0.85"/>
      <stop offset="30%" stop-color="#fef9c3" stop-opacity="0.48"/>
      <stop offset="100%" stop-color="#ffffff" stop-opacity="0"/>
    </linearGradient>
    <radialGradient id="nvRP-cm" gradientUnits="userSpaceOnUse" cx="351" cy="104" r="54">
      <stop offset="0%" stop-color="#fecaca" stop-opacity="0.98"/>
      <stop offset="15%" stop-color="#ef4444" stop-opacity="0.82"/>
      <stop offset="40%" stop-color="#ef4444" stop-opacity="0.42"/>
      <stop offset="100%" stop-color="#ef4444" stop-opacity="0"/>
    </radialGradient>
    <radialGradient id="nvSG-cm" gradientUnits="userSpaceOnUse" cx="351" cy="68" r="54">
      <stop offset="0%" stop-color="#d1fae5" stop-opacity="0.98"/>
      <stop offset="15%" stop-color="#22c55e" stop-opacity="0.82"/>
      <stop offset="40%" stop-color="#22c55e" stop-opacity="0.42"/>
      <stop offset="100%" stop-color="#22c55e" stop-opacity="0"/>
    </radialGradient>
    <filter id="nvFW-cm" x="-60%" y="-60%" width="220%" height="220%" color-interpolation-filters="sRGB">
      <feGaussianBlur in="SourceGraphic" stdDeviation="3" result="b"/>
      <feMerge>
        <feMergeNode in="b"/>
        <feMergeNode in="SourceGraphic"/>
      </feMerge>
    </filter>
    <filter id="nvFC-cm" x="-130%" y="-130%" width="360%" height="360%" color-interpolation-filters="sRGB">
      <feGaussianBlur in="SourceGraphic" stdDeviation="6" result="b"/>
      <feMerge>
        <feMergeNode in="b"/>
        <feMergeNode in="b"/>
        <feMergeNode in="SourceGraphic"/>
      </feMerge>
    </filter>
  </defs>
  <ellipse cx="270" cy="86" rx="230" ry="34" fill="#cbd5e1" opacity="0.2"/>
  <path fill="#5c7d95"
    d="M 28 86 L 36 50 L 46 42 L 120 36 L 420 38 L 470 50 L 508 74 L 512 86 L 508 98 L 470 122 L 420 134 L 120 136 L 46 130 L 36 122 L 28 86 Z"/>
  <circle cx="180" cy="86" r="28" fill="#a8a29e"/>
  <circle cx="270" cy="86" r="28" fill="#a8a29e"/>
  <circle cx="360" cy="86" r="28" fill="#a8a29e"/>
  <rect x="120" y="58" width="300" height="56" rx="2" fill="#d6d3d1" opacity="0.4"/>
  <rect x="54" y="58" width="48" height="56" rx="3" fill="#f5f5f4"/>
  <g aria-hidden="true" pointer-events="none">
    <path fill="url(#nvWB-cm)" filter="url(#nvFW-cm)" d="M 30 86 L -40 58 L -40 114 Z"/>
    <path fill="url(#nvWS-cm)" filter="url(#nvFW-cm)" d="M 506 86 L 540 56 L 540 116 Z"/>
    <ellipse cx="351" cy="104" rx="15" ry="40" fill="url(#nvRP-cm)" filter="url(#nvFC-cm)"/>
    <ellipse cx="351" cy="68" rx="15" ry="40" fill="url(#nvSG-cm)" filter="url(#nvFC-cm)"/>
  </g>
</svg>
