<svg xmlns="http://www.w3.org/2000/svg" viewBox="0 0 580 168" width="580" height="168" aria-label="Container ship side stacks">
  <ellipse cx="290" cy="88" rx="248" ry="38" fill="#94a3b8" opacity="0.2"/>
  <path fill="#5c7d95"
    d="M 32 84 L 40 46 L 46 40 L 108 32 L 412 32 L 458 36
       C 505 44  548 72  556 84
       C 548 96  505 124  458 132 L 412 136 L 108 136 L 46 128 L 40 122 L 32 84 Z"/>
  <rect x="118" y="44" width="318" height="80" rx="2" fill="#2d4554" opacity="0.45"/>
  <rect x="118" y="83" width="318" height="2" fill="#64748b" opacity="0.55"/>
  <g>
    <rect x="128" y="90" width="19" height="10" fill="#dc2626"/><rect x="149" y="90" width="19" height="10" fill="#ea580c"/><rect x="170" y="90" width="19" height="10" fill="#ca8a04"/><rect x="191" y="90" width="19" height="10" fill="#84cc16"/><rect x="212" y="90" width="19" height="10" fill="#22c55e"/><rect x="233" y="90" width="19" height="10" fill="#14b8a6"/><rect x="254" y="90" width="19" height="10" fill="#06b6d4"/><rect x="275" y="90" width="19" height="10" fill="#3b82f6"/><rect x="296" y="90" width="19" height="10" fill="#6366f1"/><rect x="317" y="90" width="19" height="10" fill="#8b5cf6"/><rect x="338" y="90" width="19" height="10" fill="#d946ef"/><rect x="359" y="90" width="19" height="10" fill="#ec4899"/><rect x="380" y="90" width="19" height="10" fill="#f43f5e"/><rect x="401" y="90" width="19" height="10" fill="#78716c"/>
    <rect x="128" y="102" width="19" height="10" fill="#f97316"/><rect x="149" y="102" width="19" height="10" fill="#eab308"/><rect x="170" y="102" width="19" height="10" fill="#a3e635"/><rect x="191" y="102" width="19" height="10" fill="#10b981"/><rect x="212" y="102" width="19" height="10" fill="#0d9488"/><rect x="233" y="102" width="19" height="10" fill="#0891b2"/><rect x="254" y="102" width="19" height="10" fill="#2563eb"/><rect x="275" y="102" width="19" height="10" fill="#4f46e5"/><rect x="296" y="102" width="19" height="10" fill="#7c3aed"/><rect x="317" y="102" width="19" height="10" fill="#c026d3"/><rect x="338" y="102" width="19" height="10" fill="#db2777"/><rect x="359" y="102" width="19" height="10" fill="#e11d48"/><rect x="380" y="102" width="19" height="10" fill="#b45309"/><rect x="401" y="102" width="19" height="10" fill="#15803d"/>
    <rect x="128" y="114" width="19" height="10" fill="#ef4444"/><rect x="149" y="114" width="19" height="10" fill="#f59e0b"/><rect x="170" y="114" width="19" height="10" fill="#65a30d"/><rect x="191" y="114" width="19" height="10" fill="#059669"/><rect x="212" y="114" width="19" height="10" fill="#0e7490"/><rect x="233" y="114" width="19" height="10" fill="#0284c7"/><rect x="254" y="114" width="19" height="10" fill="#1d4ed8"/><rect x="275" y="114" width="19" height="10" fill="#4338ca"/><rect x="296" y="114" width="19" height="10" fill="#6d28d9"/><rect x="317" y="114" width="19" height="10" fill="#a21caf"/><rect x="338" y="114" width="19" height="10" fill="#be185d"/><rect x="359" y="114" width="19" height="10" fill="#9f1239"/><rect x="380" y="114" width="19" height="10" fill="#0f766e"/><rect x="401" y="114" width="19" height="10" fill="#1e3a8a"/>
  </g>
  <rect x="48" y="52" width="52" height="64" rx="3" fill="#e8eef4"/>
  <rect x="54" y="56" width="40" height="22" rx="2" fill="#dce4ec"/>
  <rect x="58" y="60" width="14" height="10" rx="1" fill="#7dd3fc" opacity="0.5"/>
  <rect x="58" y="82" width="36" height="18" rx="2" fill="#cbd5e1"/>
  <rect x="62" y="104" width="28" height="10" rx="1" fill="#94a3b8"/>
  <rect x="70" y="44" width="14" height="14" rx="2" fill="#b91c1c"/>
  <rect x="518" y="76" width="14" height="16" rx="2" fill="#ca8a04"/>
  <circle cx="525" cy="84" r="3" fill="#fde047"/>
</svg>
