<svg xmlns="http://www.w3.org/2000/svg" viewBox="0 0 400 120" width="400" height="120" aria-label="Color matrix deck">
  <path fill="#5c7d95" d="M 20 60 L 28 38 L 100 32 L 360 36 L 380 60 L 360 84 L 100 88 L 28 82 L 20 60 Z"/>
  <rect x="95" y="40" width="250" height="40" rx="2" fill="#2d4554" opacity="0.6"/>
  <g>
    <rect x="102" y="46" width="12" height="8" fill="#ef4444"/><rect x="118" y="46" width="12" height="8" fill="#f97316"/><rect x="134" y="46" width="12" height="8" fill="#eab308"/><rect x="150" y="46" width="12" height="8" fill="#22c55e"/><rect x="166" y="46" width="12" height="8" fill="#06b6d4"/><rect x="182" y="46" width="12" height="8" fill="#3b82f6"/><rect x="198" y="46" width="12" height="8" fill="#8b5cf6"/><rect x="214" y="46" width="12" height="8" fill="#ec4899"/><rect x="230" y="46" width="12" height="8" fill="#14b8a6"/><rect x="246" y="46" width="12" height="8" fill="#84cc16"/><rect x="262" y="46" width="12" height="8" fill="#6366f1"/><rect x="278" y="46" width="12" height="8" fill="#f43f5e"/><rect x="294" y="46" width="12" height="8" fill="#78716c"/><rect x="310" y="46" width="12" height="8" fill="#0d9488"/><rect x="326" y="46" width="12" height="8" fill="#7c3aed"/>
    <rect x="102" y="58" width="12" height="8" fill="#dc2626"/><rect x="118" y="58" width="12" height="8" fill="#ea580c"/><rect x="134" y="58" width="12" height="8" fill="#ca8a04"/><rect x="150" y="58" width="12" height="8" fill="#059669"/><rect x="166" y="58" width="12" height="8" fill="#0284c7"/><rect x="182" y="58" width="12" height="8" fill="#2563eb"/><rect x="198" y="58" width="12" height="8" fill="#6d28d9"/><rect x="214" y="58" width="12" height="8" fill="#db2777"/><rect x="230" y="58" width="12" height="8" fill="#0f766e"/><rect x="246" y="58" width="12" height="8" fill="#65a30d"/><rect x="262" y="58" width="12" height="8" fill="#4338ca"/><rect x="278" y="58" width="12" height="8" fill="#9f1239"/><rect x="294" y="58" width="12" height="8" fill="#b45309"/><rect x="310" y="58" width="12" height="8" fill="#1e40af"/><rect x="326" y="58" width="12" height="8" fill="#831843"/>
  </g>
</svg>
