<svg xmlns="http://www.w3.org/2000/svg" viewBox="-520 -95 1580 330" width="1580" height="330" aria-label="Feeder">
  <defs>
    <style type="text/css"><![CDATA[
      /* פנסים — הבהוב איטי יותר */
      @-webkit-keyframes navBlinkCf {
        0%, 48% { opacity: 1; }
        58%, 92% { opacity: 0.08; }
        100% { opacity: 1; }
      }
      @keyframes navBlinkCf {
        0%, 48% { opacity: 1; }
        58%, 92% { opacity: 0.08; }
        100% { opacity: 1; }
      }
      .nvPortCf {
        -webkit-animation: navBlinkCf 8.5s ease-in-out infinite;
        animation: navBlinkCf 8.5s ease-in-out infinite;
        -webkit-animation-delay: 0s;
        animation-delay: 0s;
      }
      .nvStbdCf {
        -webkit-animation: navBlinkCf 8.5s ease-in-out infinite;
        animation: navBlinkCf 8.5s ease-in-out infinite;
        -webkit-animation-delay: 4.25s;
        animation-delay: 4.25s;
      }
      @-webkit-keyframes beamBreathCf {
        0%, 100% { opacity: 0.98; }
        50% { opacity: 0.78; }
      }
      @keyframes beamBreathCf {
        0%, 100% { opacity: 0.98; }
        50% { opacity: 0.78; }
      }
      .nvBeamsBreathCf {
        -webkit-animation: beamBreathCf 8.5s ease-in-out infinite;
        animation: beamBreathCf 8.5s ease-in-out infinite;
      }
      /* אלומה קדמית — נדנוד ימינה־שמאל (חזק יותר) */
      @-webkit-keyframes nvBowSwayAnimCf {
        0%, 100% { -webkit-transform: rotate(-3.85deg); transform: rotate(-3.85deg); }
        50% { -webkit-transform: rotate(3.85deg); transform: rotate(3.85deg); }
      }
      @keyframes nvBowSwayAnimCf {
        0%, 100% { -webkit-transform: rotate(-3.85deg); transform: rotate(-3.85deg); }
        50% { -webkit-transform: rotate(3.85deg); transform: rotate(3.85deg); }
      }
      .nvBowSwayCf {
        -webkit-transform-origin: 0 0;
        transform-origin: 0 0;
        -webkit-animation: nvBowSwayAnimCf 7.2s ease-in-out infinite;
        animation: nvBowSwayAnimCf 7.2s ease-in-out infinite;
      }
      /* אלומה אחורית — נדנוד עדין (מנוגד לקדמה) */
      @-webkit-keyframes nvSternSwayAnimCf {
        0%, 100% { -webkit-transform: rotate(2.75deg); transform: rotate(2.75deg); }
        50% { -webkit-transform: rotate(-2.75deg); transform: rotate(-2.75deg); }
      }
      @keyframes nvSternSwayAnimCf {
        0%, 100% { -webkit-transform: rotate(2.75deg); transform: rotate(2.75deg); }
        50% { -webkit-transform: rotate(-2.75deg); transform: rotate(-2.75deg); }
      }
      .nvSternSwayCf {
        -webkit-transform-origin: 32px 80px;
        transform-origin: 32px 80px;
        -webkit-animation: nvSternSwayAnimCf 8s ease-in-out infinite;
        animation: nvSternSwayAnimCf 8s ease-in-out infinite;
      }
      /* צלחת מכ״ם — סיבוב מלא איטי (iOS/WebKit בתוך object: קידומת -webkit-) */
      @-webkit-keyframes bridgeSearchSpinCf {
        from { -webkit-transform: rotate(0deg); transform: rotate(0deg); }
        to { -webkit-transform: rotate(360deg); transform: rotate(360deg); }
      }
      @keyframes bridgeSearchSpinCf {
        from { -webkit-transform: rotate(0deg); transform: rotate(0deg); }
        to { -webkit-transform: rotate(360deg); transform: rotate(360deg); }
      }
      .bridgeSearchSpinCf {
        -webkit-transform-origin: 0 0;
        transform-origin: 0 0;
        -webkit-animation: bridgeSearchSpinCf 36s linear infinite;
        animation: bridgeSearchSpinCf 36s linear infinite;
      }
      /* סירות הצלה — דופק עדין חליפי כדי שיבלטו כציוד בטיחות */
      @-webkit-keyframes lifeboatPulseCf {
        0%, 100% { opacity: 1; filter: brightness(1); }
        50% { opacity: 0.88; filter: brightness(1.12); }
      }
      @keyframes lifeboatPulseCf {
        0%, 100% { opacity: 1; filter: brightness(1); }
        50% { opacity: 0.88; filter: brightness(1.12); }
      }
      .lifeboatPulseCf-a {
        -webkit-animation: lifeboatPulseCf 2.6s ease-in-out infinite;
        animation: lifeboatPulseCf 2.6s ease-in-out infinite;
      }
      .lifeboatPulseCf-b {
        -webkit-animation: lifeboatPulseCf 2.6s ease-in-out infinite;
        animation: lifeboatPulseCf 2.6s ease-in-out infinite;
        -webkit-animation-delay: 1.3s;
        animation-delay: 1.3s;
      }
      /*
       * iOS/Android נוטים לדווח prefers-reduced-motion; כמו .animated-grid-bg במובייל —
       * מכ״ם ואלומות נשארים בתנועה (דקורטיבי). רק סירות הצלה נעצרות ב-reduce.
       */
      @media (prefers-reduced-motion: reduce) {
        .lifeboatPulseCf-a, .lifeboatPulseCf-b {
          -webkit-animation: none;
          animation: none;
          opacity: 1;
          filter: none;
        }
      }
    ]]></style>
    <!-- גוף: גרדיאנט “ברק מתחלף” לאורך הדופן -->
    <linearGradient id="hullSheen-cf" gradientUnits="userSpaceOnUse" x1="60" y1="80" x2="500" y2="80">
      <stop offset="0%" stop-color="#4a6d82"/>
      <stop offset="18%" stop-color="#5e8fa8"/>
      <stop offset="38%" stop-color="#8ec0d8"/>
      <stop offset="52%" stop-color="#b8dce8"/>
      <stop offset="68%" stop-color="#6fa0b8"/>
      <stop offset="88%" stop-color="#5089a4"/>
      <stop offset="100%" stop-color="#4d7a92"/>
      <animate attributeName="x1" values="40;140;40" dur="20s" repeatCount="indefinite"/>
      <animate attributeName="x2" values="460;560;460" dur="20s" repeatCount="indefinite"/>
    </linearGradient>
    <!-- אלומה אחורית (ירכתיים) — חזרה לגרסה המקורית (חמימות + רוחב קודם) -->
    <linearGradient id="nvWB-cf" gradientUnits="userSpaceOnUse" x1="32" y1="80" x2="-300" y2="80">
      <stop offset="0%" stop-color="#ffffff" stop-opacity="0.92"/>
      <stop offset="18%" stop-color="#fef9c3" stop-opacity="0.5"/>
      <stop offset="55%" stop-color="#fefce8" stop-opacity="0.12"/>
      <stop offset="100%" stop-color="#ffffff" stop-opacity="0"/>
    </linearGradient>
    <!-- אלומה קדמית נעה: אותו לook כמו ירכתיים — פייד לאורך האלומה (objectBoundingBox כדי שיעבוד עם נדנוד) -->
    <linearGradient id="nvWS-cf" gradientUnits="objectBoundingBox" x1="0" y1="0.5" x2="1" y2="0.5">
      <stop offset="0%" stop-color="#ffffff" stop-opacity="0.92"/>
      <stop offset="18%" stop-color="#fef9c3" stop-opacity="0.52"/>
      <stop offset="50%" stop-color="#fefce8" stop-opacity="0.16"/>
      <stop offset="82%" stop-color="#fef9c3" stop-opacity="0.06"/>
      <stop offset="100%" stop-color="#ffffff" stop-opacity="0"/>
    </linearGradient>
    <radialGradient id="nvRP-cf" gradientUnits="userSpaceOnUse" cx="183" cy="118" r="24">
      <stop offset="0%" stop-color="#fecaca" stop-opacity="0.95"/>
      <stop offset="35%" stop-color="#ef4444" stop-opacity="0.65"/>
      <stop offset="100%" stop-color="#ef4444" stop-opacity="0"/>
    </radialGradient>
    <radialGradient id="nvSG-cf" gradientUnits="userSpaceOnUse" cx="183" cy="42" r="24">
      <stop offset="0%" stop-color="#d1fae5" stop-opacity="0.95"/>
      <stop offset="35%" stop-color="#22c55e" stop-opacity="0.65"/>
      <stop offset="100%" stop-color="#22c55e" stop-opacity="0"/>
    </radialGradient>
    <filter id="nvFW-cf" x="-90%" y="-90%" width="280%" height="280%" color-interpolation-filters="sRGB">
      <feGaussianBlur in="SourceGraphic" stdDeviation="5" result="b"/>
      <feMerge>
        <feMergeNode in="b"/>
        <feMergeNode in="b"/>
        <feMergeNode in="SourceGraphic"/>
      </feMerge>
    </filter>
    <filter id="nvFC-cf" x="-130%" y="-130%" width="360%" height="360%" color-interpolation-filters="sRGB">
      <feGaussianBlur in="SourceGraphic" stdDeviation="5" result="b"/>
      <feMerge>
        <feMergeNode in="b"/>
        <feMergeNode in="SourceGraphic"/>
      </feMerge>
    </filter>
    <filter id="hullHaloSoft-cf" x="-28%" y="-28%" width="156%" height="156%" color-interpolation-filters="sRGB">
      <feGaussianBlur in="SourceGraphic" stdDeviation="7" result="b"/>
      <feMerge>
        <feMergeNode in="b"/>
      </feMerge>
    </filter>
    <filter id="containerBloom-cf" x="-35%" y="-35%" width="170%" height="170%" color-interpolation-filters="sRGB">
      <feGaussianBlur in="SourceGraphic" stdDeviation="1.15" result="blur"/>
      <feColorMatrix in="blur" type="matrix"
        values="1 0 0 0 0  0 1 0 0 0  0 0 1 0 0  0 0 0 0.85 0" result="soft"/>
      <feMerge>
        <feMergeNode in="soft"/>
        <feMergeNode in="SourceGraphic"/>
      </feMerge>
    </filter>
    <filter id="tinyBeamBlur-cf" x="-20%" y="-20%" width="140%" height="140%" color-interpolation-filters="sRGB">
      <feGaussianBlur in="SourceGraphic" stdDeviation="0.45" result="b"/>
      <feMerge>
        <feMergeNode in="b"/>
        <feMergeNode in="SourceGraphic"/>
      </feMerge>
    </filter>
  </defs>
  <g transform="translate(260,0) scale(-1,1) translate(-260,0)">
  <g filter="url(#hullHaloSoft-cf)" opacity="0.38" aria-hidden="true">
    <ellipse cx="260" cy="80" rx="395" ry="86" fill="#38bdf8" opacity="0.045"/>
    <ellipse cx="260" cy="80" rx="315" ry="68" fill="#5b9bb8" opacity="0.032"/>
    <ellipse cx="260" cy="80" rx="240" ry="52" fill="#7eb8d4" opacity="0.022"/>
  </g>
  <!-- חרטום: מחודד אך רך יותר מקודם (בין המקור לשפיץ הקודם) -->
  <path fill="url(#hullSheen-cf)"
    d="M 28 80 L 36 52 L 46 46 L 110 40 L 400 42 L 444 44 L 472 54 L 492 68 L 500 80 L 492 92 L 472 106 L 444 116 L 400 118 L 110 120 L 46 114 L 36 108 L 28 80 Z"/>
  <!-- פרטי חרטום — בולארדים בלבד; מחוץ לאמבטיית המכולות, בתוך קו הגוף -->
  <g aria-hidden="true" opacity="0.92">
    <circle cx="466.2" cy="65.8" r="5.65" fill="#334155" stroke="#fcd34d" stroke-width="0.78"/>
    <circle cx="466.2" cy="94.2" r="5.65" fill="#334155" stroke="#fcd34d" stroke-width="0.78"/>
  </g>
  <!-- סירות הצלה על הגוף בלבד — בלי מתלים; רוחב מוגדל, דופק עדין -->
  <g aria-hidden="true" transform="translate(-5.5, 0)">
    <g class="lifeboatPulseCf-a">
      <path fill="#ea580c"
        d="M 60 61.1 L 46 59.3 L 24.5 60.6 L 17.8 65.8 L 24.5 71.3 L 46 73.2 L 60 72 L 63.5 66.2 Z"/>
      <path fill="#fbbf24" opacity="0.55"
        d="M 58 64.5 L 42.5 63.4 L 25 64.8 L 20 66.2 L 25 67.8 L 42.5 69.1 L 58 68 L 59.4 66.2 Z"/>
      <line x1="22" y1="66.1" x2="54" y2="66.1" stroke="#fefce8" stroke-width="1.45" stroke-linecap="round" opacity="0.95"/>
    </g>
    <g class="lifeboatPulseCf-b">
      <path fill="#ea580c"
        d="M 60 88.6 L 46 86.8 L 24.5 88.1 L 17.8 93.3 L 24.5 98.8 L 46 100.7 L 60 99.5 L 63.5 93.7 Z"/>
      <path fill="#fbbf24" opacity="0.55"
        d="M 58 92 L 42.5 90.9 L 25 92.3 L 20 93.7 L 25 95.3 L 42.5 96.6 L 58 95.5 L 59.4 93.7 Z"/>
      <line x1="22" y1="93.6" x2="54" y2="93.6" stroke="#fefce8" stroke-width="1.45" stroke-linecap="round" opacity="0.95"/>
    </g>
  </g>
  <rect x="105" y="48" width="310" height="64" rx="2" fill="#1a2d38" opacity="0.82"/>
  <!-- קונטיינרים: אותה שפה צבעונית כמו פעם — בוהק יותר + זוהר -->
  <g filter="url(#containerBloom-cf)" aria-hidden="true">
  <!-- קונטיינרים: פחות מטען — רווחים בלתי־אחידים על הסיפון -->
  <g>
    <rect x="115" y="54" width="16" height="10" fill="#fb923c"/><rect x="135" y="54" width="16" height="10" fill="#60a5fa"/>
    <rect x="195" y="54" width="16" height="10" fill="#f97316"/><rect x="235" y="54" width="16" height="10" fill="#22c55e"/>
    <rect x="275" y="54" width="16" height="10" fill="#fb923c"/><rect x="315" y="54" width="16" height="10" fill="#4ade80"/>
    <rect x="355" y="54" width="16" height="10" fill="#f97316"/><rect x="375" y="54" width="16" height="10" fill="#38bdf8"/>
  </g>
  <g>
    <rect x="115" y="68" width="16" height="10" fill="#22c55e"/><rect x="155" y="68" width="16" height="10" fill="#fb923c"/>
    <rect x="195" y="68" width="16" height="10" fill="#4ade80"/><rect x="235" y="68" width="16" height="10" fill="#f97316"/>
    <rect x="295" y="68" width="16" height="10" fill="#fb7185"/><rect x="315" y="68" width="16" height="10" fill="#60a5fa"/>
    <rect x="355" y="68" width="16" height="10" fill="#4ade80"/>
  </g>
  <g>
    <rect x="135" y="82" width="16" height="10" fill="#38bdf8"/><rect x="175" y="82" width="16" height="10" fill="#fb7185"/>
    <rect x="215" y="82" width="16" height="10" fill="#fb923c"/><rect x="235" y="82" width="16" height="10" fill="#4ade80"/>
    <rect x="295" y="82" width="16" height="10" fill="#f97316"/><rect x="335" y="82" width="16" height="10" fill="#22c55e"/>
    <rect x="355" y="82" width="16" height="10" fill="#fb923c"/><rect x="375" y="82" width="16" height="10" fill="#60a5fa"/>
  </g>
  <g>
    <rect x="115" y="96" width="16" height="10" fill="#4ade80"/><rect x="175" y="96" width="16" height="10" fill="#38bdf8"/>
    <rect x="195" y="96" width="16" height="10" fill="#22c55e"/><rect x="235" y="96" width="16" height="10" fill="#fb923c"/>
    <rect x="295" y="96" width="16" height="10" fill="#f87171"/><rect x="315" y="96" width="16" height="10" fill="#f97316"/>
    <rect x="355" y="96" width="16" height="10" fill="#38bdf8"/><rect x="375" y="96" width="16" height="10" fill="#fb7185"/>
  </g>
  </g>
  <g id="bridge-feeder" transform="translate(16,0) translate(71,81) scale(1.38) translate(-71,-81)" aria-hidden="true">
    <!-- מגדל: גוף כהה (עיגולים + צלחת); מרפסת קדמית בהירה בקצה ה-x הגבוה -->
    <path fill="#1a2d38" stroke="#243b4a" stroke-width="0.85"
      d="M 56.5 64 Q 54 64 54 66.5 L 54 95.5 Q 54 98 56.5 98 L 80 98 L 80 64 Z"/>
    <path fill="#d4ebf7" stroke="#1a3550" stroke-width="0.85"
      d="M 80 64 L 85.5 64 Q 88 64 88 66.5 L 88 95.5 Q 88 98 85.5 98 L 80 98 Z"/>
    <line x1="80" y1="66.2" x2="80" y2="95.8" stroke="#e0f2fe" stroke-width="1.05" stroke-linecap="round"/>
    <!-- מרפסת קדמית: שני קווי אורך — שלושה פסי חלון כמו חדר פיקוח -->
    <g stroke="#4a6272" stroke-width="0.52" stroke-linecap="round" aria-hidden="true">
      <line x1="80.4" y1="75.33" x2="87.6" y2="75.33"/>
      <line x1="80.4" y1="86.67" x2="87.6" y2="86.67"/>
    </g>
    <!-- עיגולים + צלחת + אלומה: היסט קל אחורה (‎-x) וימינה (‎+y) -->
    <g transform="translate(-4.5, 2.6)">
    <g transform="translate(71,81) rotate(90) translate(-71,-81)">
      <circle cx="71" cy="81" r="6.9" fill="none" stroke="#ffffff" stroke-width="0.55" stroke-dasharray="2 2" opacity="0.9"/>
      <circle cx="71" cy="81" r="4.35" fill="#ffffff" stroke="#e2e8f0" stroke-width="0.45"/>
    </g>
    <g transform="translate(71,81)">
      <g class="bridgeSearchSpinCf">
        <path d="M 0 0 L 50 -28.5 L 61 0 L 50 28.5 Z" fill="url(#nvWS-cf)" filter="url(#nvFW-cf)" stroke="none" opacity="0.94"/>
        <path d="M 0 0 L 8.8 -8.8 Q 11 0 8.8 8.8 Z" fill="#f8fafc" stroke="#cbd5e1" stroke-width="0.35"/>
      </g>
    </g>
    </g>
  </g>
  <g class="nvBeamsBreathCf" aria-hidden="true" pointer-events="none">
    <g class="nvSternSwayCf">
      <path fill="url(#nvWB-cf)" filter="url(#nvFW-cf)" d="M 32 80 L -300 62 L -300 98 Z"/>
    </g>
  </g>
  <g transform="translate(500,80)" class="nvBeamsBreathCf" aria-hidden="true" pointer-events="none">
    <g class="nvBowSwayCf">
      <path fill="url(#nvWS-cf)" filter="url(#nvFW-cf)" d="M 0 0 L 535 -36 L 535 36 Z"/>
    </g>
  </g>
  </g>
  <g aria-hidden="true" pointer-events="none">
    <circle class="nvPortCf" cx="183" cy="118" r="11" fill="url(#nvRP-cf)" filter="url(#nvFC-cf)"/>
    <circle class="nvStbdCf" cx="183" cy="42" r="11" fill="url(#nvSG-cf)" filter="url(#nvFC-cf)"/>
  </g>
</svg>
