<svg xmlns="http://www.w3.org/2000/svg" viewBox="0 0 600 125" width="600" height="125" aria-label="Feeder top view bulk cargo">
  <defs>
    <linearGradient id="planWaterB" gradientUnits="userSpaceOnUse" x1="300" y1="0" x2="300" y2="125">
      <stop offset="0%" stop-color="#115e59"/>
      <stop offset="100%" stop-color="#134e4a"/>
    </linearGradient>
  </defs>
  <rect width="600" height="125" fill="url(#planWaterB)"/>
  <ellipse cx="300" cy="62.5" rx="268" ry="48" fill="#57534e" stroke="#44403c" stroke-width="1.4"/>
  <ellipse cx="300" cy="62.5" rx="248" ry="36" fill="#78716c" opacity="0.95"/>
  <rect x="95" y="44" width="410" height="37" rx="5" fill="#292524" stroke="#1c1917" stroke-width="0.8"/>
  <g fill="#a16207" stroke="#713f12" stroke-width="0.4">
    <rect x="112" y="50" width="22" height="10" rx="1"/><rect x="118" y="46" width="22" height="10" rx="1"/><rect x="124" y="42" width="22" height="10" rx="1"/>
  </g>
  <g fill="#ca8a04" stroke="#854d0e" stroke-width="0.35" opacity="0.9">
    <ellipse cx="195" cy="60" rx="22" ry="12"/><ellipse cx="205" cy="56" rx="18" ry="10"/>
  </g>
  <g stroke="#1c1917" stroke-width="0.5">
    <rect x="248" y="54" width="42" height="18" rx="3" fill="#dc2626"/>
    <rect x="262" y="50" width="18" height="10" rx="1" fill="#fecaca"/>
    <rect x="254" y="72" width="8" height="5" rx="1" fill="#171717"/><rect x="276" y="72" width="8" height="5" rx="1" fill="#171717"/>
  </g>
  <g stroke="#1c1917" stroke-width="0.5">
    <rect x="318" y="55" width="38" height="16" rx="2.5" fill="#2563eb"/>
    <rect x="330" y="51" width="14" height="8" rx="1" fill="#bfdbfe"/>
    <rect x="324" y="71" width="7" height="4" rx="0.8" fill="#171717"/><rect x="343" y="71" width="7" height="4" rx="0.8" fill="#171717"/>
  </g>
  <g stroke-linecap="round">
    <line x1="380" y1="52" x2="450" y2="52" stroke="#71717a" stroke-width="3"/>
    <line x1="385" y1="58" x2="455" y2="58" stroke="#a1a1aa" stroke-width="2"/>
    <line x1="388" y1="64" x2="448" y2="64" stroke="#52525b" stroke-width="2.5"/>
  </g>
  <rect x="472" y="52" width="22" height="20" rx="2" fill="#1e293b" stroke="#334155" stroke-width="0.5"/>
</svg>
