<svg xmlns="http://www.w3.org/2000/svg" viewBox="0 0 600 125" width="600" height="125" aria-label="Feeder top view containers">
  <defs>
    <linearGradient id="planWater" gradientUnits="userSpaceOnUse" x1="300" y1="0" x2="300" y2="125">
      <stop offset="0%" stop-color="#0e7490"/>
      <stop offset="100%" stop-color="#164e63"/>
    </linearGradient>
  </defs>
  <rect width="600" height="125" fill="url(#planWater)"/>
  <g opacity="0.25" stroke="#bae6fd" stroke-width="0.8" fill="none">
    <path d="M 25 62 Q 55 48 25 35"/><path d="M 35 90 Q 65 78 35 65"/>
    <path d="M 575 62 Q 545 48 575 35"/>
  </g>
  <ellipse cx="300" cy="62.5" rx="268" ry="48" fill="#57534e" stroke="#44403c" stroke-width="1.4"/>
  <ellipse cx="300" cy="62.5" rx="248" ry="36" fill="#78716c" opacity="0.95"/>
  <rect x="95" y="44" width="410" height="37" rx="5" fill="#292524" stroke="#1c1917" stroke-width="0.8"/>
  <g stroke="#0f172a" stroke-width="0.35">
    <rect x="108" y="50" width="18" height="11" fill="#f97316" rx="1"/><rect x="130" y="50" width="18" height="11" fill="#3b82f6" rx="1"/>
    <rect x="152" y="50" width="18" height="11" fill="#22c55e" rx="1"/><rect x="174" y="50" width="18" height="11" fill="#eab308" rx="1"/>
    <rect x="196" y="50" width="18" height="11" fill="#ec4899" rx="1"/><rect x="218" y="50" width="18" height="11" fill="#f97316" rx="1"/>
    <rect x="248" y="50" width="18" height="11" fill="#38bdf8" rx="1"/><rect x="270" y="50" width="18" height="11" fill="#a3e635" rx="1"/>
    <rect x="292" y="50" width="18" height="11" fill="#fb923c" rx="1"/><rect x="314" y="50" width="18" height="11" fill="#6366f1" rx="1"/>
    <rect x="336" y="50" width="18" height="11" fill="#14b8a6" rx="1"/><rect x="358" y="50" width="18" height="11" fill="#f43f5e" rx="1"/>
    <rect x="380" y="50" width="18" height="11" fill="#84cc16" rx="1"/><rect x="402" y="50" width="18" height="11" fill="#0ea5e9" rx="1"/>
    <rect x="424" y="50" width="18" height="11" fill="#f59e0b" rx="1"/><rect x="446" y="50" width="18" height="11" fill="#8b5cf6" rx="1"/>
    <rect x="468" y="50" width="18" height="11" fill="#10b981" rx="1"/>
    <rect x="118" y="64" width="18" height="11" fill="#06b6d4" rx="1"/><rect x="155" y="64" width="18" height="11" fill="#f97316" rx="1"/>
    <rect x="192" y="64" width="18" height="11" fill="#3b82f6" rx="1"/><rect x="229" y="64" width="18" height="11" fill="#eab308" rx="1"/>
    <rect x="266" y="64" width="18" height="11" fill="#ec4899" rx="1"/><rect x="303" y="64" width="18" height="11" fill="#22c55e" rx="1"/>
    <rect x="340" y="64" width="18" height="11" fill="#a78bfa" rx="1"/><rect x="377" y="64" width="18" height="11" fill="#fb923c" rx="1"/>
    <rect x="414" y="64" width="18" height="11" fill="#14b8a6" rx="1"/><rect x="451" y="64" width="18" height="11" fill="#f43f5e" rx="1"/>
  </g>
  <rect x="472" y="52" width="22" height="20" rx="2" fill="#1e293b" stroke="#334155" stroke-width="0.5"/>
  <circle cx="483" cy="62" r="3" fill="#38bdf8" opacity="0.7"/>
</svg>
