<svg xmlns="http://www.w3.org/2000/svg" viewBox="-520 -95 1580 330" width="1580" height="330" aria-label="General cargo">
  <defs>
    <style type="text/css"><![CDATA[
      @keyframes navBlinkCf {
        0%, 42% { opacity: 1; }
        54%, 91% { opacity: 0.07; }
        100% { opacity: 1; }
      }
      .nvPortCf { animation: navBlinkCf 4.4s ease-in-out infinite; animation-delay: 0s; }
      .nvStbdCf { animation: navBlinkCf 4.4s ease-in-out infinite; animation-delay: 2.2s; }
      @keyframes beamBreathCf {
        0%, 100% { opacity: 0.96; }
        50% { opacity: 0.86; }
      }
      .nvBeamsBreathCf { animation: beamBreathCf 8.5s ease-in-out infinite; }
      @media (prefers-reduced-motion: reduce) {
        .nvBeamsBreathCf { animation: none; opacity: 0.92; }
      }
    ]]></style>
    <linearGradient id="nvWB-gc" gradientUnits="userSpaceOnUse" x1="32" y1="80" x2="-520" y2="80">
      <stop offset="0%" stop-color="#ffffff" stop-opacity="0.92"/>
      <stop offset="18%" stop-color="#fef9c3" stop-opacity="0.5"/>
      <stop offset="55%" stop-color="#fefce8" stop-opacity="0.12"/>
      <stop offset="100%" stop-color="#ffffff" stop-opacity="0"/>
    </linearGradient>
    <linearGradient id="nvWS-gc" gradientUnits="userSpaceOnUse" x1="488" y1="80" x2="1040" y2="80">
      <stop offset="0%" stop-color="#ffffff" stop-opacity="0.9"/>
      <stop offset="18%" stop-color="#fef9c3" stop-opacity="0.48"/>
      <stop offset="55%" stop-color="#fefce8" stop-opacity="0.1"/>
      <stop offset="100%" stop-color="#ffffff" stop-opacity="0"/>
    </linearGradient>
    <radialGradient id="nvRP-gc" gradientUnits="userSpaceOnUse" cx="183" cy="118" r="24">
      <stop offset="0%" stop-color="#fecaca" stop-opacity="0.95"/>
      <stop offset="35%" stop-color="#ef4444" stop-opacity="0.65"/>
      <stop offset="100%" stop-color="#ef4444" stop-opacity="0"/>
    </radialGradient>
    <radialGradient id="nvSG-gc" gradientUnits="userSpaceOnUse" cx="183" cy="42" r="24">
      <stop offset="0%" stop-color="#d1fae5" stop-opacity="0.95"/>
      <stop offset="35%" stop-color="#22c55e" stop-opacity="0.65"/>
      <stop offset="100%" stop-color="#22c55e" stop-opacity="0"/>
    </radialGradient>
    <filter id="nvFW-gc" x="-90%" y="-90%" width="280%" height="280%" color-interpolation-filters="sRGB">
      <feGaussianBlur in="SourceGraphic" stdDeviation="5" result="b"/>
      <feMerge>
        <feMergeNode in="b"/>
        <feMergeNode in="b"/>
        <feMergeNode in="SourceGraphic"/>
      </feMerge>
    </filter>
    <filter id="nvFC-gc" x="-130%" y="-130%" width="360%" height="360%" color-interpolation-filters="sRGB">
      <feGaussianBlur in="SourceGraphic" stdDeviation="5" result="b"/>
      <feMerge>
        <feMergeNode in="b"/>
        <feMergeNode in="SourceGraphic"/>
      </feMerge>
    </filter>
    <filter id="hullHaloSoft-gc" x="-28%" y="-28%" width="156%" height="156%" color-interpolation-filters="sRGB">
      <feGaussianBlur in="SourceGraphic" stdDeviation="11" result="b"/>
      <feMerge><feMergeNode in="b"/></feMerge>
    </filter>
  </defs>
  <g transform="translate(260,0) scale(-1,1) translate(-260,0)">
    <g filter="url(#hullHaloSoft-gc)" opacity="0.88" aria-hidden="true">
      <ellipse cx="260" cy="80" rx="395" ry="86" fill="#00a8ff" opacity="0.09"/>
      <ellipse cx="260" cy="80" rx="315" ry="68" fill="#64748b" opacity="0.075"/>
      <ellipse cx="260" cy="80" rx="240" ry="52" fill="#94a3b8" opacity="0.055"/>
    </g>
    <g transform="translate(260,80) scale(0.868) translate(-294,-84)">
      <path fill="#5c7d95"
        d="M 32 84 L 40 46 L 46 40 L 108 32 L 412 32 L 458 36 C 505 44 548 72 556 84 C 548 96 505 124 458 132 L 412 136 L 108 136 L 46 128 L 40 122 L 32 84 Z"/>
      <rect x="125" y="48" width="88" height="70" rx="2" fill="#93c5fd"/>
      <rect x="223" y="48" width="88" height="70" rx="2" fill="#93c5fd"/>
      <rect x="321" y="48" width="100" height="70" rx="2" fill="#93c5fd"/>
      <rect x="128" y="52" width="82" height="8" fill="#94a3b8"/>
      <rect x="226" y="52" width="82" height="8" fill="#94a3b8"/>
      <rect x="324" y="52" width="94" height="8" fill="#94a3b8"/>
      <rect x="135" y="68" width="28" height="18" rx="1" fill="#d97706"/>
      <rect x="175" y="70" width="24" height="16" rx="1" fill="#e7e5e4"/>
      <rect x="240" y="66" width="32" height="20" rx="1" fill="#a16207"/>
      <rect x="285" y="72" width="20" height="14" rx="1" fill="#d6d3d1"/>
      <rect x="340" y="64" width="36" height="22" rx="1" fill="#ca8a04" opacity="0.85"/>
      <rect x="385" y="70" width="28" height="16" rx="1" fill="#cbd5e1"/>
      <rect x="48" y="52" width="52" height="64" rx="3" fill="#f1f5f9"/>
      <rect x="54" y="56" width="40" height="22" rx="2" fill="#e2e8f0"/>
      <rect x="70" y="44" width="12" height="12" rx="2" fill="#b91c1c"/>
      <circle cx="528" cy="84" r="6" fill="#ca8a04"/>
    </g>
    <g class="nvBeamsBreathCf" aria-hidden="true" pointer-events="none">
      <path fill="url(#nvWB-gc)" filter="url(#nvFW-gc)" d="M 32 80 L -515 62 L -515 98 Z"/>
      <path fill="url(#nvWS-gc)" filter="url(#nvFW-gc)" d="M 488 80 L 1035 62 L 1035 98 Z"/>
    </g>
  </g>
  <g aria-hidden="true" pointer-events="none">
    <circle class="nvPortCf" cx="183" cy="118" r="11" fill="url(#nvRP-gc)" filter="url(#nvFC-gc)"/>
    <circle class="nvStbdCf" cx="183" cy="42" r="11" fill="url(#nvSG-gc)" filter="url(#nvFC-gc)"/>
  </g>
</svg>
