<svg xmlns="http://www.w3.org/2000/svg" viewBox="0 0 580 168" width="580" height="168" aria-label="Multipurpose">
  <defs>
    <linearGradient id="nvWB-mp" gradientUnits="userSpaceOnUse" x1="34" y1="88" x2="-38" y2="88">
      <stop offset="0%" stop-color="#ffffff" stop-opacity="0.88"/>
      <stop offset="28%" stop-color="#fef9c3" stop-opacity="0.5"/>
      <stop offset="100%" stop-color="#ffffff" stop-opacity="0"/>
    </linearGradient>
    <linearGradient id="nvWS-mp" gradientUnits="userSpaceOnUse" x1="552" y1="88" x2="612" y2="88">
      <stop offset="0%" stop-color="#ffffff" stop-opacity="0.85"/>
      <stop offset="30%" stop-color="#fef9c3" stop-opacity="0.48"/>
      <stop offset="100%" stop-color="#ffffff" stop-opacity="0"/>
    </linearGradient>
    <radialGradient id="nvRP-mp" gradientUnits="userSpaceOnUse" cx="381" cy="104" r="56">
      <stop offset="0%" stop-color="#fecaca" stop-opacity="0.98"/>
      <stop offset="15%" stop-color="#ef4444" stop-opacity="0.82"/>
      <stop offset="40%" stop-color="#ef4444" stop-opacity="0.42"/>
      <stop offset="100%" stop-color="#ef4444" stop-opacity="0"/>
    </radialGradient>
    <radialGradient id="nvSG-mp" gradientUnits="userSpaceOnUse" cx="381" cy="72" r="56">
      <stop offset="0%" stop-color="#d1fae5" stop-opacity="0.98"/>
      <stop offset="15%" stop-color="#22c55e" stop-opacity="0.82"/>
      <stop offset="40%" stop-color="#22c55e" stop-opacity="0.42"/>
      <stop offset="100%" stop-color="#22c55e" stop-opacity="0"/>
    </radialGradient>
    <filter id="nvFW-mp" x="-60%" y="-60%" width="220%" height="220%" color-interpolation-filters="sRGB">
      <feGaussianBlur in="SourceGraphic" stdDeviation="3" result="b"/>
      <feMerge>
        <feMergeNode in="b"/>
        <feMergeNode in="SourceGraphic"/>
      </feMerge>
    </filter>
    <filter id="nvFC-mp" x="-130%" y="-130%" width="360%" height="360%" color-interpolation-filters="sRGB">
      <feGaussianBlur in="SourceGraphic" stdDeviation="6" result="b"/>
      <feMerge>
        <feMergeNode in="b"/>
        <feMergeNode in="b"/>
        <feMergeNode in="SourceGraphic"/>
      </feMerge>
    </filter>
  </defs>
  <ellipse cx="290" cy="88" rx="248" ry="38" fill="#cbd5e1" opacity="0.22"/>
  <path fill="#5c7d95"
    d="M 32 84 L 40 46 L 46 40 L 108 32 L 412 32 L 458 36 C 505 44 548 72 556 84 C 548 96 505 124 458 132 L 412 136 L 108 136 L 46 128 L 40 122 L 32 84 Z"/>
  
  <rect x="118" y="44" width="318" height="80" rx="2" fill="#2d4554" opacity="0.92"/>
  
  <g>
    <rect x="130" y="92" width="18" height="9" fill="#c2410c"/>
    <rect x="152" y="92" width="18" height="9" fill="#1e40af"/>
    <rect x="174" y="92" width="18" height="9" fill="#166534"/>
    <rect x="196" y="92" width="18" height="9" fill="#991b1b"/>
    <rect x="218" y="92" width="18" height="9" fill="#c2410c"/>
    <rect x="240" y="92" width="18" height="9" fill="#1e40af"/>
    <rect x="262" y="92" width="18" height="9" fill="#166534"/>
    <rect x="284" y="92" width="18" height="9" fill="#991b1b"/>
    <rect x="306" y="92" width="18" height="9" fill="#c2410c"/>
    <rect x="328" y="92" width="18" height="9" fill="#1e40af"/>
    <rect x="350" y="92" width="18" height="9" fill="#166534"/>
    <rect x="372" y="92" width="18" height="9" fill="#991b1b"/>
    <rect x="394" y="92" width="18" height="9" fill="#c2410c"/>
    <rect x="130" y="104" width="18" height="9" fill="#166534"/>
    <rect x="152" y="104" width="18" height="9" fill="#991b1b"/>
    <rect x="174" y="104" width="18" height="9" fill="#c2410c"/>
    <rect x="196" y="104" width="18" height="9" fill="#1e40af"/>
    <rect x="218" y="104" width="18" height="9" fill="#166534"/>
    <rect x="240" y="104" width="18" height="9" fill="#991b1b"/>
    <rect x="262" y="104" width="18" height="9" fill="#c2410c"/>
    <rect x="284" y="104" width="18" height="9" fill="#1e40af"/>
    <rect x="306" y="104" width="18" height="9" fill="#166534"/>
    <rect x="328" y="104" width="18" height="9" fill="#991b1b"/>
    <rect x="350" y="104" width="18" height="9" fill="#c2410c"/>
    <rect x="372" y="104" width="18" height="9" fill="#1e40af"/>
    <rect x="394" y="104" width="18" height="9" fill="#166534"/>
  </g>
  <rect x="135" y="52" width="32" height="20" rx="1" fill="#a16207"/>
  <rect x="178" y="54" width="40" height="18" rx="1" fill="#e7e5e4"/>
  <rect x="230" y="50" width="36" height="24" rx="1" fill="#d97706" opacity="0.9"/>
  <rect x="278" y="56" width="28" height="16" rx="1" fill="#cbd5e1"/>
  <rect x="318" y="52" width="44" height="22" rx="1" fill="#d6d3d1"/>
  <rect x="375" y="56" width="30" height="18" rx="1" fill="#a8a29e"/>
  <rect x="48" y="52" width="52" height="64" rx="3" fill="#f1f5f9"/>
  <rect x="54" y="56" width="40" height="22" rx="2" fill="#e2e8f0"/>
  <rect x="70" y="44" width="14" height="14" rx="2" fill="#b91c1c"/>
  <rect x="518" y="76" width="14" height="16" rx="2" fill="#ca8a04"/>
  <g aria-hidden="true" pointer-events="none">
    <path fill="url(#nvWB-mp)" filter="url(#nvFW-mp)" d="M 34 88 L -36 62 L -36 114 Z"/>
    <path fill="url(#nvWS-mp)" filter="url(#nvFW-mp)" d="M 552 88 L 620 58 L 620 118 Z"/>
    <ellipse cx="381" cy="104" rx="16" ry="42" fill="url(#nvRP-mp)" filter="url(#nvFC-mp)"/>
    <ellipse cx="381" cy="72" rx="16" ry="42" fill="url(#nvSG-mp)" filter="url(#nvFC-mp)"/>
  </g>
</svg>
