<svg xmlns="http://www.w3.org/2000/svg" viewBox="0 0 500 158" width="500" height="158" aria-label="Offshore supply">
  <ellipse cx="250" cy="82" rx="210" ry="32" fill="#cbd5e1" opacity="0.18"/>
  <path fill="#5c7d95"
    d="M 26 82 L 34 50 L 48 42 L 200 36 L 420 40 L 468 58 L 482 82 L 468 106 L 420 124 L 200 128 L 48 122 L 34 114 L 26 82 Z"/>
  <rect x="120" y="50" width="260" height="64" rx="2" fill="#cbd5e1"/>
  <rect x="140" y="56" width="36" height="14" rx="1" fill="#ca8a04" opacity="0.85"/>
  <rect x="190" y="56" width="36" height="14" rx="1" fill="#ca8a04" opacity="0.85"/>
  <rect x="240" y="56" width="36" height="14" rx="1" fill="#ca8a04" opacity="0.85"/>
  <rect x="290" y="56" width="36" height="14" rx="1" fill="#ca8a04" opacity="0.85"/>
  <rect x="52" y="56" width="48" height="52" rx="3" fill="#f8fafc"/>
</svg>
