<svg xmlns="http://www.w3.org/2000/svg" viewBox="0 0 520 160" width="520" height="160" aria-label="Supply vessel">
  <defs>
    <linearGradient id="nvWB-sv" gradientUnits="userSpaceOnUse" x1="30" y1="80" x2="-42" y2="80">
      <stop offset="0%" stop-color="#ffffff" stop-opacity="0.88"/>
      <stop offset="28%" stop-color="#fef9c3" stop-opacity="0.5"/>
      <stop offset="100%" stop-color="#ffffff" stop-opacity="0"/>
    </linearGradient>
    <linearGradient id="nvWS-sv" gradientUnits="userSpaceOnUse" x1="488" y1="80" x2="518" y2="80">
      <stop offset="0%" stop-color="#ffffff" stop-opacity="0.85"/>
      <stop offset="30%" stop-color="#fef9c3" stop-opacity="0.48"/>
      <stop offset="100%" stop-color="#ffffff" stop-opacity="0"/>
    </linearGradient>
    <radialGradient id="nvRP-sv" gradientUnits="userSpaceOnUse" cx="337" cy="98" r="50">
      <stop offset="0%" stop-color="#fecaca" stop-opacity="0.98"/>
      <stop offset="15%" stop-color="#ef4444" stop-opacity="0.82"/>
      <stop offset="40%" stop-color="#ef4444" stop-opacity="0.42"/>
      <stop offset="100%" stop-color="#ef4444" stop-opacity="0"/>
    </radialGradient>
    <radialGradient id="nvSG-sv" gradientUnits="userSpaceOnUse" cx="337" cy="62" r="50">
      <stop offset="0%" stop-color="#d1fae5" stop-opacity="0.98"/>
      <stop offset="15%" stop-color="#22c55e" stop-opacity="0.82"/>
      <stop offset="40%" stop-color="#22c55e" stop-opacity="0.42"/>
      <stop offset="100%" stop-color="#22c55e" stop-opacity="0"/>
    </radialGradient>
    <filter id="nvFW-sv" x="-60%" y="-60%" width="220%" height="220%" color-interpolation-filters="sRGB">
      <feGaussianBlur in="SourceGraphic" stdDeviation="3" result="b"/>
      <feMerge>
        <feMergeNode in="b"/>
        <feMergeNode in="SourceGraphic"/>
      </feMerge>
    </filter>
    <filter id="nvFC-sv" x="-130%" y="-130%" width="360%" height="360%" color-interpolation-filters="sRGB">
      <feGaussianBlur in="SourceGraphic" stdDeviation="6" result="b"/>
      <feMerge>
        <feMergeNode in="b"/>
        <feMergeNode in="b"/>
        <feMergeNode in="SourceGraphic"/>
      </feMerge>
    </filter>
  </defs>
  <ellipse cx="260" cy="82" rx="220" ry="34" fill="#cbd5e1" opacity="0.18"/>
  <path fill="#5c7d95"
    d="M 28 80 L 36 48 L 44 40 L 120 34 L 400 36 L 448 42 L 488 58 L 492 80 L 488 102 L 448 118 L 400 124 L 120 126 L 44 120 L 36 112 L 28 80 Z"/>
  <rect x="130" y="52" width="260" height="56" rx="2" fill="#a8b4cc"/>
  <circle cx="260" cy="80" r="22" fill="#cbd5e1"/>
  <circle cx="260" cy="80" r="10" fill="#cbd5e1"/>
  <rect x="48" y="54" width="48" height="52" rx="3" fill="#f8fafc"/>
  <rect x="400" y="62" width="36" height="36" rx="2" fill="#ca8a04" opacity="0.85"/>
  <g aria-hidden="true" pointer-events="none">
    <path fill="url(#nvWB-sv)" filter="url(#nvFW-sv)" d="M 30 80 L -42 52 L -42 108 Z"/>
    <path fill="url(#nvWS-sv)" filter="url(#nvFW-sv)" d="M 488 80 L 522 50 L 522 110 Z"/>
    <ellipse cx="337" cy="98" rx="14" ry="38" fill="url(#nvRP-sv)" filter="url(#nvFC-sv)"/>
    <ellipse cx="337" cy="62" rx="14" ry="38" fill="url(#nvSG-sv)" filter="url(#nvFC-sv)"/>
  </g>
</svg>
