<svg xmlns="http://www.w3.org/2000/svg" viewBox="0 0 580 168" width="580" height="168" aria-label="Product tanker">
  <defs>
    <linearGradient id="nvWB-tp" gradientUnits="userSpaceOnUse" x1="34" y1="88" x2="-38" y2="88">
      <stop offset="0%" stop-color="#ffffff" stop-opacity="0.88"/>
      <stop offset="28%" stop-color="#fef9c3" stop-opacity="0.5"/>
      <stop offset="100%" stop-color="#ffffff" stop-opacity="0"/>
    </linearGradient>
    <linearGradient id="nvWS-tp" gradientUnits="userSpaceOnUse" x1="552" y1="88" x2="612" y2="88">
      <stop offset="0%" stop-color="#ffffff" stop-opacity="0.85"/>
      <stop offset="30%" stop-color="#fef9c3" stop-opacity="0.48"/>
      <stop offset="100%" stop-color="#ffffff" stop-opacity="0"/>
    </linearGradient>
    <radialGradient id="nvRP-tp" gradientUnits="userSpaceOnUse" cx="381" cy="104" r="56">
      <stop offset="0%" stop-color="#fecaca" stop-opacity="0.98"/>
      <stop offset="15%" stop-color="#ef4444" stop-opacity="0.82"/>
      <stop offset="40%" stop-color="#ef4444" stop-opacity="0.42"/>
      <stop offset="100%" stop-color="#ef4444" stop-opacity="0"/>
    </radialGradient>
    <radialGradient id="nvSG-tp" gradientUnits="userSpaceOnUse" cx="381" cy="72" r="56">
      <stop offset="0%" stop-color="#d1fae5" stop-opacity="0.98"/>
      <stop offset="15%" stop-color="#22c55e" stop-opacity="0.82"/>
      <stop offset="40%" stop-color="#22c55e" stop-opacity="0.42"/>
      <stop offset="100%" stop-color="#22c55e" stop-opacity="0"/>
    </radialGradient>
    <filter id="nvFW-tp" x="-60%" y="-60%" width="220%" height="220%" color-interpolation-filters="sRGB">
      <feGaussianBlur in="SourceGraphic" stdDeviation="3" result="b"/>
      <feMerge>
        <feMergeNode in="b"/>
        <feMergeNode in="SourceGraphic"/>
      </feMerge>
    </filter>
    <filter id="nvFC-tp" x="-130%" y="-130%" width="360%" height="360%" color-interpolation-filters="sRGB">
      <feGaussianBlur in="SourceGraphic" stdDeviation="6" result="b"/>
      <feMerge>
        <feMergeNode in="b"/>
        <feMergeNode in="b"/>
        <feMergeNode in="SourceGraphic"/>
      </feMerge>
    </filter>
  </defs>
  <ellipse cx="290" cy="88" rx="248" ry="38" fill="#cbd5e1" opacity="0.2"/>
  <path fill="#5c7d95"
    d="M 32 84 L 40 46 L 46 40 L 108 32 L 412 32 L 458 36 C 505 44 548 72 556 84 C 548 96 505 124 458 132 L 412 136 L 108 136 L 46 128 L 40 122 L 32 84 Z"/>
  <rect x="118" y="46" width="318" height="76" rx="3" fill="#2d4554" opacity="0.95"/>
  <rect x="128" y="54" width="298" height="5" fill="#4a6578" opacity="0.95"/>
  <rect x="132" y="66" width="290" height="4" fill="#5a7a8c" opacity="0.9"/>
  <rect x="128" y="77" width="298" height="5" fill="#4a6578" opacity="0.92"/>
  <rect x="132" y="89" width="290" height="4" fill="#5a7a8c" opacity="0.88"/>
  <rect x="128" y="100" width="298" height="5" fill="#4a6578" opacity="0.85"/>
  <rect x="132" y="112" width="290" height="4" fill="#5a7a8c" opacity="0.82"/>
  <rect x="198" y="62" width="22" height="28" rx="2" fill="#a8b4cc"/>
  <rect x="248" y="64" width="22" height="28" rx="2" fill="#cbd5e1"/>
  <rect x="328" y="60" width="26" height="32" rx="2" fill="#a8b4cc"/>
  <rect x="48" y="50" width="52" height="68" rx="3" fill="#f8fafc"/>
  <rect x="54" y="54" width="40" height="26" rx="2" fill="#e2e8f0"/>
  <rect x="58" y="58" width="16" height="12" rx="1" fill="#2d4554" opacity="0.35"/>
  <rect x="54" y="86" width="40" height="20" rx="2" fill="#cbd5e1"/>
  <rect x="70" y="42" width="14" height="14" rx="2" fill="#ea580c"/>
  <rect x="520" y="76" width="12" height="16" rx="2" fill="#ca8a04"/>
  <g aria-hidden="true" pointer-events="none">
    <path fill="url(#nvWB-tp)" filter="url(#nvFW-tp)" d="M 34 88 L -36 62 L -36 114 Z"/>
    <path fill="url(#nvWS-tp)" filter="url(#nvFW-tp)" d="M 552 88 L 620 58 L 620 118 Z"/>
    <ellipse cx="381" cy="104" rx="16" ry="42" fill="url(#nvRP-tp)" filter="url(#nvFC-tp)"/>
    <ellipse cx="381" cy="72" rx="16" ry="42" fill="url(#nvSG-tp)" filter="url(#nvFC-tp)"/>
  </g>
</svg>
